<svg xmlns="http://www.w3.org/2000/svg" width="28" height="28" viewBox="0 0 28 28">
  <defs>
    <style>
      .cls-1 {
        fill: #bbbec7;
      }

      .cls-2 {
        fill: none;
      }
    </style>
  </defs>
  <g id="组_681" data-name="组 681" transform="translate(-33 -634)">
    <path id="路径_67" data-name="路径 67" class="cls-1" d="M20.616,3.286a1.981,1.981,0,0,0-2.43,1.4,1.946,1.946,0,0,0,.077,1.152L15.039,8.927a1.974,1.974,0,0,0-1.271.056L10.206,5.618A1.988,1.988,0,0,0,6.694,3.785,1.96,1.96,0,0,0,6.483,5.26l-3.9,4.215a2.529,2.529,0,0,0-.478-.014,2.107,2.107,0,1,0,2.107,2.107,2,2,0,0,0-.105-.618L7.987,6.735a3.055,3.055,0,0,0,.365.042l4.158,3.9a1.974,1.974,0,1,0,3.92-.14l3.456-3.344a1.981,1.981,0,0,0,.7-3.884ZM1.756,15.08A1.054,1.054,0,0,0,.7,16.155v4.215a1.054,1.054,0,1,0,2.107,0V16.155A1.054,1.054,0,0,0,1.756,15.08Zm12.644,0a1.054,1.054,0,0,0-1.054,1.075v4.215a1.054,1.054,0,1,0,2.107,0V16.155A1.054,1.054,0,0,0,14.4,15.08ZM8.078,9.461a1.054,1.054,0,0,0-1.054,1.075v9.834a1.054,1.054,0,1,0,2.107,0V10.535A1.054,1.054,0,0,0,8.078,9.461Zm12.644-.7a1.054,1.054,0,0,0-1.054,1.075V20.369a1.054,1.054,0,0,0,2.107,0V9.833a1.054,1.054,0,0,0-1.054-1.075Z" transform="translate(36 635.141)"/>
    <rect id="矩形_435" data-name="矩形 435" class="cls-2" width="28" height="28" transform="translate(33 634)"/>
  </g>
</svg>
