<svg xmlns="http://www.w3.org/2000/svg" width="28" height="28" viewBox="0 0 28 28">
  <defs>
    <style>
      .cls-1 {
        fill: #bbbec7;
      }

      .cls-2 {
        fill: none;
      }
    </style>
  </defs>
  <g id="组_686" data-name="组 686" transform="translate(-33 -338)">
    <path id="形状_3" data-name="形状 3" class="cls-1" d="M7657.835,3498a8.022,8.022,0,0,1,7.025,11.655c-.212.419-.527,1.038.044,3.292a8.738,8.738,0,0,0-1.819-.247,3.064,3.064,0,0,0-1.5.344,7.819,7.819,0,0,1-3.747.956,8,8,0,0,1,0-16m0-2a10,10,0,0,0,0,20,9.728,9.728,0,0,0,4.686-1.2,1.216,1.216,0,0,1,.565-.1,20.788,20.788,0,0,1,4.907,1.3s-1.778-4.641-1.377-5.428a10.07,10.07,0,0,0,1.089-4.572,9.935,9.935,0,0,0-9.87-10Z" transform="translate(-7610.967 -3155)"/>
    <path id="路径_64" data-name="路径 64" class="cls-1" d="M424.595,515.354a3.479,3.479,0,0,0-2.945-1.649,3.441,3.441,0,0,0-2.279.858,3.356,3.356,0,0,0-1.089,1.773,2.2,2.2,0,0,0-1.454,2.092,2.235,2.235,0,0,0,1.677,2.16l5.761.069a2.662,2.662,0,0,0,.331-5.3Zm-2.441,1.016a.5.5,0,0,0-.11.394.519.519,0,0,0,.212.35.5.5,0,0,0,.383.1.51.51,0,0,0,.349-.212,1.581,1.581,0,0,1,1.275-.638,1.6,1.6,0,0,1,0,3.208h-5.229a1.167,1.167,0,0,1-.19-2.314l.382-.077.037-.369a2.466,2.466,0,0,1,.8-1.467,2.424,2.424,0,0,1,3.324.132,2.651,2.651,0,0,0-1.229.894Z" transform="translate(-375.055 -166.062)"/>
    <rect id="矩形_431" data-name="矩形 431" class="cls-2" width="28" height="28" transform="translate(33 338)"/>
  </g>
</svg>
