<svg xmlns="http://www.w3.org/2000/svg" width="28" height="28" viewBox="0 0 28 28">
  <defs>
    <style>
      .cls-1 {
        fill: none;
      }

      .cls-2 {
        fill: #bbbec7;
      }
    </style>
  </defs>
  <g id="组_689" data-name="组 689" transform="translate(-32 -114)">
    <rect id="矩形_428" data-name="矩形 428" class="cls-1" width="28" height="28" transform="translate(32 114)"/>
    <path id="形状_1" data-name="形状 1" class="cls-2" d="M7663.01,3261.469a2.49,2.49,0,1,1,2.49,2.49A2.49,2.49,0,0,1,7663.01,3261.469Zm-8.01,0a2.489,2.489,0,1,1,2.49,2.49A2.49,2.49,0,0,1,7655,3261.469Zm-8,0a2.489,2.489,0,1,1,2.49,2.49A2.49,2.49,0,0,1,7647,3261.469Zm16.009-8a2.49,2.49,0,1,1,2.49,2.49A2.491,2.491,0,0,1,7663.01,3253.469Zm-8.01,0a2.489,2.489,0,1,1,2.49,2.49A2.491,2.491,0,0,1,7655,3253.469Zm-8,0a2.489,2.489,0,1,1,2.49,2.49A2.491,2.491,0,0,1,7647,3253.469Zm16-7.99a2.5,2.5,0,1,1,2.5,2.49A2.5,2.5,0,0,1,7663,3245.479Zm-8.009,0a2.5,2.5,0,1,1,2.5,2.49A2.5,2.5,0,0,1,7654.991,3245.479Zm-8,0a2.5,2.5,0,1,1,2.5,2.49A2.5,2.5,0,0,1,7646.989,3245.479Z" transform="translate(-7611 -3124.989)"/>
  </g>
</svg>
