<svg xmlns="http://www.w3.org/2000/svg" width="28" height="28" viewBox="0 0 28 28">
  <defs>
    <style>
      .cls-1 {
        fill: none;
      }

      .cls-2 {
        fill: #bbbec7;
      }
    </style>
  </defs>
  <g id="组_722" data-name="组 722" transform="translate(-33 -485)">
    <rect id="矩形_433" data-name="矩形 433" class="cls-1" width="28" height="28" transform="translate(33 485)"/>
    <g id="组_721" data-name="组 721" transform="translate(4.5 456.5)">
      <path id="路径_273" data-name="路径 273" class="cls-2" d="M42.4,31.5a10.9,10.9,0,1,0,10.9,10.9A10.9,10.9,0,0,0,42.4,31.5Zm0,19.749A8.853,8.853,0,1,1,51.249,42.4,8.853,8.853,0,0,1,42.4,51.249Z"/>
      <path id="路径_274" data-name="路径 274" class="cls-2" d="M334.652,271.8a1.025,1.025,0,0,0-1.444,0l-2.458,2.458-2.458-2.458a1.021,1.021,0,1,0-1.444,1.444l2.783,2.783h-1.605a1.022,1.022,0,0,0,0,2.043h1.7v.681h-1.7a1.021,1.021,0,0,0,0,2.043h1.7v1.7a1.022,1.022,0,0,0,2.043,0v-1.7h1.7a1.021,1.021,0,1,0,0-2.043h-1.7v-.681h1.7a1.022,1.022,0,0,0,0-2.043h-1.605l2.783-2.783A1.023,1.023,0,0,0,334.652,271.8Z" transform="translate(-288.36 -234.56)"/>
    </g>
  </g>
</svg>
