<svg xmlns="http://www.w3.org/2000/svg" width="28" height="28" viewBox="0 0 28 28">
  <defs>
    <style>
      .cls-1 {
        fill: #bbbec7;
      }

      .cls-2 {
        fill: none;
      }
    </style>
  </defs>
  <g id="组_688" data-name="组 688" transform="translate(-33 -188)">
    <path id="形状_2" data-name="形状 2" class="cls-1" d="M7660.853,3345.871a6.439,6.439,0,1,0-12.873,0h-1.988a8.641,8.641,0,0,1,5.671-8.165,5.629,5.629,0,0,1-2.712-4.838,5.466,5.466,0,1,1,10.929,0,5.625,5.625,0,0,1-2.712,4.838,8.641,8.641,0,0,1,5.671,8.165Zm-9.915-13a3.479,3.479,0,1,0,3.479-3.57A3.529,3.529,0,0,0,7650.938,3332.867Zm15.08,8.3a6.6,6.6,0,0,0-3.131-5.669,5.372,5.372,0,0,1-2.737.752v-2.04a3.63,3.63,0,0,0,0-7.257,3.465,3.465,0,0,0-2.43.993l-1.369-1.482a5.427,5.427,0,0,1,3.8-1.551,5.6,5.6,0,0,1,5.521,5.667,5.74,5.74,0,0,1-1.222,3.551,8.656,8.656,0,0,1,3.556,7.036Z" transform="translate(-7610.992 -3132.91)"/>
    <rect id="矩形_429" data-name="矩形 429" class="cls-2" width="28" height="28" transform="translate(33 188)"/>
  </g>
</svg>
