<svg xmlns="http://www.w3.org/2000/svg" width="28" height="28" viewBox="0 0 28 28">
  <defs>
    <style>
      .cls-1 {
        fill: #bbbec7;
      }

      .cls-2 {
        fill: none;
      }
    </style>
  </defs>
  <g id="组_680" data-name="组 680" transform="translate(-33 -708)">
    <g id="组_31" data-name="组 31" transform="translate(12 688)">
      <path id="路径_17" data-name="路径 17" class="cls-1" d="M52.7,43.869V40.833a.545.545,0,0,0-.552-.552H50.459a.538.538,0,0,1-.518-.38,9.04,9.04,0,0,0-.483-1.19.553.553,0,0,1,.1-.638l1.208-1.208a.563.563,0,0,0,0-.776L48.63,33.949a.563.563,0,0,0-.776,0l-1.208,1.208a.553.553,0,0,1-.638.1,7.166,7.166,0,0,0-1.19-.483.555.555,0,0,1-.38-.518V32.552A.571.571,0,0,0,43.869,32H40.833a.545.545,0,0,0-.552.552v1.691a.538.538,0,0,1-.38.518,9.04,9.04,0,0,0-1.19.483.553.553,0,0,1-.638-.1l-1.208-1.208a.563.563,0,0,0-.776,0l-2.122,2.174a.563.563,0,0,0,0,.776l1.208,1.208a.553.553,0,0,1,.1.638,7.166,7.166,0,0,0-.483,1.19.555.555,0,0,1-.518.38H32.552a.521.521,0,0,0-.552.535v3.036a.545.545,0,0,0,.552.552h1.691a.538.538,0,0,1,.518.38,9.039,9.039,0,0,0,.483,1.19.553.553,0,0,1-.1.638l-1.208,1.208a.563.563,0,0,0,0,.776l2.139,2.139a.563.563,0,0,0,.776,0l1.208-1.208a.553.553,0,0,1,.638-.1,7.166,7.166,0,0,0,1.19.483.555.555,0,0,1,.38.518v1.691a.545.545,0,0,0,.552.552h3.036a.545.545,0,0,0,.552-.552V50.459a.538.538,0,0,1,.38-.518,9.04,9.04,0,0,0,1.19-.483.553.553,0,0,1,.638.1l1.208,1.208a.563.563,0,0,0,.776,0l2.139-2.139a.563.563,0,0,0,0-.776l-1.208-1.208a.553.553,0,0,1-.1-.638,7.167,7.167,0,0,0,.483-1.19.555.555,0,0,1,.518-.38h1.691A.578.578,0,0,0,52.7,43.869ZM42.351,47.216a4.865,4.865,0,1,1,4.865-4.865A4.87,4.87,0,0,1,42.351,47.216Z" transform="translate(-7.827 -7.827)"/>
      <path id="路径_18" data-name="路径 18" class="cls-1" d="M36.041,45.047H33.005a.729.729,0,0,1-.725-.725V42.631a.373.373,0,0,0-.259-.362,9.345,9.345,0,0,1-1.208-.5.4.4,0,0,0-.431.069l-1.208,1.208a.7.7,0,0,1-.518.207.73.73,0,0,1-.518-.207L26,40.906a.7.7,0,0,1-.207-.518A.73.73,0,0,1,26,39.871l1.208-1.208a.37.37,0,0,0,.069-.431,8.108,8.108,0,0,1-.5-1.208.373.373,0,0,0-.362-.259H24.725A.729.729,0,0,1,24,36.041V33.005a.729.729,0,0,1,.725-.725h1.691a.373.373,0,0,0,.362-.259,9.345,9.345,0,0,1,.5-1.208.37.37,0,0,0-.069-.431L26,29.175a.75.75,0,0,1,0-1.035L28.14,26a.7.7,0,0,1,.518-.207.73.73,0,0,1,.518.207l1.208,1.208a.37.37,0,0,0,.431.069,8.108,8.108,0,0,1,1.208-.5.373.373,0,0,0,.259-.362V24.725A.729.729,0,0,1,33.005,24h3.036a.729.729,0,0,1,.725.725v1.691a.373.373,0,0,0,.259.362,9.345,9.345,0,0,1,1.208.5.4.4,0,0,0,.431-.069L39.871,26a.7.7,0,0,1,.518-.207.73.73,0,0,1,.518.207l2.139,2.139a.75.75,0,0,1,0,1.035l-1.208,1.208a.37.37,0,0,0-.069.431,8.108,8.108,0,0,1,.5,1.208.373.373,0,0,0,.362.259h1.691a.729.729,0,0,1,.725.725v3.036a.729.729,0,0,1-.725.725H42.631a.373.373,0,0,0-.362.259,9.345,9.345,0,0,1-.5,1.208.37.37,0,0,0,.069.431l1.208,1.208a.7.7,0,0,1,.207.518.73.73,0,0,1-.207.518l-2.139,2.139a.7.7,0,0,1-.518.207.73.73,0,0,1-.518-.207l-1.208-1.208a.37.37,0,0,0-.431-.069,8.108,8.108,0,0,1-1.208.5.373.373,0,0,0-.259.362v1.691A.729.729,0,0,1,36.041,45.047Zm-5.382-3.675a.774.774,0,0,1,.328.086,9.625,9.625,0,0,0,1.156.483.742.742,0,0,1,.5.69v1.691a.383.383,0,0,0,.38.38h3.036a.383.383,0,0,0,.38-.38V42.631a.742.742,0,0,1,.5-.69,6.81,6.81,0,0,0,1.156-.483.706.706,0,0,1,.828.138L40.13,42.8a.4.4,0,0,0,.535,0L42.8,40.665a.392.392,0,0,0,.1-.276.423.423,0,0,0-.1-.276L41.6,38.905a.711.711,0,0,1-.138-.828,9.625,9.625,0,0,0,.483-1.156.742.742,0,0,1,.69-.5h1.691a.383.383,0,0,0,.38-.38V33.005a.383.383,0,0,0-.38-.38H42.631a.742.742,0,0,1-.69-.5,6.81,6.81,0,0,0-.483-1.156.711.711,0,0,1,.138-.828L42.8,28.934a.365.365,0,0,0,0-.535L40.648,26.26a.4.4,0,0,0-.535,0l-1.208,1.208a.739.739,0,0,1-.828.138,9.625,9.625,0,0,0-1.156-.483.742.742,0,0,1-.5-.69V24.725a.383.383,0,0,0-.38-.38H33.005a.383.383,0,0,0-.38.38v1.691a.742.742,0,0,1-.5.69,6.81,6.81,0,0,0-1.156.483.706.706,0,0,1-.828-.138l-1.208-1.208a.4.4,0,0,0-.535,0L26.26,28.4a.365.365,0,0,0,0,.535l1.208,1.208a.711.711,0,0,1,.138.828,9.626,9.626,0,0,0-.483,1.156.742.742,0,0,1-.69.5H24.725a.383.383,0,0,0-.38.38v3.036a.383.383,0,0,0,.38.38h1.691a.742.742,0,0,1,.69.5,6.81,6.81,0,0,0,.483,1.156.711.711,0,0,1-.138.828l-1.208,1.208a.392.392,0,0,0-.1.276.423.423,0,0,0,.1.276L28.382,42.8a.4.4,0,0,0,.535,0L30.124,41.6A.823.823,0,0,1,30.659,41.372Zm3.864-1.811a5.037,5.037,0,1,1,5.037-5.037A5.043,5.043,0,0,1,34.523,39.561Zm0-9.73a4.692,4.692,0,1,0,4.692,4.692,4.7,4.7,0,0,0-4.692-4.692Z"/>
    </g>
    <rect id="矩形_436" data-name="矩形 436" class="cls-2" width="28" height="28" transform="translate(33 708)"/>
  </g>
</svg>
