<svg xmlns="http://www.w3.org/2000/svg" width="28" height="28" viewBox="0 0 28 28">
  <defs>
    <style>
      .cls-1 {
        fill: #bbbec7;
      }

      .cls-2 {
        fill: none;
      }
    </style>
  </defs>
  <g id="组_685" data-name="组 685" transform="translate(-33 -412)">
    <g id="组_29" data-name="组 29" transform="translate(-26.658 414.755)">
      <path id="路径_13" data-name="路径 13" class="cls-1" d="M260.747,301.4l-1.854-1.854.927-.927a.8.8,0,0,1,1.113,0l.739.743a.784.784,0,0,1,0,1.112Zm-5.386,5.387-1.854-1.855,5.04-5,1.854,1.854Zm-3.344,1.522,1.128-3.016,1.838,1.839-2.966,1.177Zm0,0" transform="translate(-183.68 -291.291)"/>
      <path id="路径_14" data-name="路径 14" class="cls-1" d="M83.363,8.878V2.7A1.8,1.8,0,0,0,81.571.9h-3.05a1.022,1.022,0,0,0-.989-.9l.008,0H69.507A1.025,1.025,0,0,0,68.5.9H65.45a1.8,1.8,0,0,0-1.792,1.8v18a1.8,1.8,0,0,0,1.791,1.8H81.571a1.8,1.8,0,0,0,1.792-1.8V12.445h0V8.878h0Zm-1.794,1.7V19.8a.9.9,0,0,1-.894.9H78.5v0H68.517v0H66.345a.9.9,0,0,1-.894-.9V3.6a.9.9,0,0,1,.894-.9h2.127V3.41a1.037,1.037,0,0,0,1.036,1.036h8.006A1.036,1.036,0,0,0,78.55,3.41V2.7h2.127a.9.9,0,0,1,.894.9v6.974Z" transform="translate(0)"/>
    </g>
    <rect id="矩形_432" data-name="矩形 432" class="cls-2" width="28" height="28" transform="translate(33 412)"/>
  </g>
</svg>
